<?xml version="1.0" standalone="no"?>
<!DOCTYPE svg PUBLIC "-//W3C//DTD SVG 20010904//EN"
 "http://www.w3.org/TR/2001/REC-SVG-20010904/DTD/svg10.dtd">
<svg version="1.0" xmlns="http://www.w3.org/2000/svg"
 width="512.000000pt" height="512.000000pt" viewBox="0 0 512.000000 512.000000"
 preserveAspectRatio="xMidYMid meet">
<metadata>
Created by potrace 1.11, written by Peter Selinger 2001-2013
</metadata>
<g transform="translate(0.000000,512.000000) scale(0.100000,-0.100000)"
fill="#000000" stroke="none">
<path d="M770 3723 c-169 -43 -303 -173 -346 -337 -20 -74 -18 -183 6 -258 64
-207 253 -342 469 -334 71 2 161 22 161 35 0 3 -40 31 -88 63 -58 37 -101 58
-129 62 -109 14 -201 85 -250 192 -42 92 -31 200 30 290 64 96 163 145 277
139 64 -4 141 -33 177 -67 l23 -21 27 24 c15 13 41 39 59 57 l32 32 -30 25
c-41 35 -105 71 -158 91 -60 21 -191 25 -260 7z"/>
<path d="M2180 3540 l0 -197 -237 0 -236 0 -79 -80 -78 -80 0 -197 0 -196 80
0 c76 0 80 1 81 23 0 12 1 100 1 195 0 153 2 172 16 173 22 1 423 1 440 0 9
-1 12 -47 12 -196 l0 -195 80 0 80 0 0 474 0 475 -80 -1 -80 -1 0 -197z"/>
<path d="M3283 3617 c-33 -67 -140 -281 -237 -475 l-176 -353 91 3 92 3 146
292 147 293 64 -133 c36 -72 68 -134 72 -137 13 -10 173 -5 173 5 0 8 -301
613 -309 622 -1 1 -29 -53 -63 -120z"/>
<path d="M4170 3265 l0 -479 80 82 80 83 0 316 0 316 -80 80 -80 80 0 -478z"/>
<path d="M3600 2870 l40 -80 90 0 90 0 -40 80 -40 80 -90 0 -90 0 40 -80z"/>
<path d="M1046 2318 c-9 -5 -11 -76 -11 -277 0 -149 -1 -271 -3 -271 -6 0 -58
44 -112 94 -25 22 -66 59 -90 81 -25 22 -88 79 -140 126 -269 243 -275 249
-280 233 -11 -30 -1 -225 12 -237 7 -7 51 -46 98 -87 47 -41 105 -94 130 -116
57 -53 80 -73 176 -159 43 -38 85 -77 94 -85 9 -8 51 -46 94 -85 44 -38 100
-89 125 -112 25 -24 48 -43 51 -43 8 0 6 928 -2 936 -10 9 -125 11 -142 2z"/>
<path d="M1685 2320 c-11 -4 8 -28 62 -82 l78 -77 238 1 237 1 0 78 c0 56 -4
79 -12 80 -60 4 -592 3 -603 -1z"/>
<path d="M2720 2322 c-7 -3 -7 -8 -1 -15 5 -7 21 -34 36 -62 48 -88 35 -83
229 -83 198 0 230 -8 273 -72 39 -60 30 -149 -20 -193 -39 -34 -84 -47 -167
-47 -44 0 -80 -2 -80 -5 0 -4 100 -179 227 -395 l44 -75 84 0 c46 0 86 2 89 5
3 3 -37 79 -88 170 l-94 164 29 15 c73 40 145 138 155 211 3 23 7 48 8 57 5
29 -15 116 -34 154 -25 48 -91 114 -138 138 -21 11 -60 22 -87 27 -50 7 -446
12 -465 6z"/>
<path d="M4169 2326 c-2 -2 -22 -7 -44 -10 -50 -8 -115 -46 -150 -88 -47 -55
-65 -106 -65 -183 0 -107 46 -188 135 -241 58 -33 67 -35 240 -35 175 -1 203
-10 233 -71 32 -63 7 -127 -61 -153 l-43 -16 1 -77 c1 -87 1 -87 88 -63 108
31 187 142 187 264 0 80 -22 134 -78 191 -66 69 -103 79 -304 86 -170 5 -177
6 -202 29 -66 62 -39 178 45 196 16 4 29 12 30 18 1 7 1 43 1 80 -1 66 -3 82
-13 73z"/>
<path d="M1668 1881 c-1 -25 -2 -62 0 -81 l3 -35 297 2 c163 1 305 2 315 3 15
0 17 11 17 79 l0 79 -314 0 -314 0 -4 -47z"/>
<path d="M1760 1476 c-89 -83 -90 -84 -90 -93 0 -5 142 -8 315 -8 l316 0 -3
80 -3 80 -235 0 -235 1 -65 -60z"/>
</g>
</svg>
