<svg width="418" height="48" viewBox="0 0 418 48" fill="none" xmlns="http://www.w3.org/2000/svg">
<path d="M14.76 46.08C17.64 47.34 20.76 48 24.06 48C27.36 48 30.48 47.4 33.36 46.14L24.06 39.96C21.84 39.96 19.8 39.54 17.82 38.76C15.9 37.92 14.22 36.78 12.78 35.28C11.28 33.84 10.14 32.16 9.3 30.24C8.46 28.26 8.04 26.22 8.04 24C8.04 21.78 8.46 19.74 9.3 17.76C10.14 15.84 11.28 14.16 12.72 12.72C14.16 11.22 15.84 10.08 17.82 9.24C19.74 8.46 21.84 8.04 24.06 8.04C28.38 8.04 32.16 9.54 35.34 12.66L41.04 7.08C38.82 4.86 36.24 3.12 33.36 1.86C30.48 0.599999 27.36 -7.15256e-07 24.06 -7.15256e-07C20.76 -7.15256e-07 17.64 0.659998 14.76 1.92C11.82 3.18 9.3 4.86 7.08 7.08C4.92 9.24 3.18 11.76 1.92 14.64C0.66 17.58 0 20.7 0 24C0 27.24 0.66 30.3 1.92 33.24C3.18 36.18 4.92 38.7 7.08 40.92C9.3 43.08 11.82 44.82 14.76 46.08ZM90.1636 -7.15256e-07V19.98H66.1636L58.1836 28.02V48H66.1636V28.02H90.1636V48H98.1436V-7.15256e-07H90.1636ZM127.264 32.04L134.344 17.94L141.364 32.04H150.364L134.344 -7.15256e-07L110.344 48H119.224L123.304 39.96L127.264 32.04ZM154.324 40.02H145.444L149.404 48H158.344L154.324 40.02ZM184.289 7.92L176.309 -7.15256e-07V48L184.289 39.96V7.92ZM231.608 -7.15256e-07V28.74L199.688 -7.15256e-07V12.12L239.588 48V47.94V47.88V-7.15256e-07H231.608ZM263.789 47.34V48H295.769V39.96H271.769L263.789 47.34ZM263.789 -7.15256e-07L271.769 8.04H295.769V-7.15256e-07H263.789ZM263.789 20.04V28.02H271.769H295.769V20.04H271.769H263.789ZM351.134 25.02C353.054 22.32 353.954 19.32 353.954 15.96C353.954 11.58 352.394 7.86 349.274 4.68C346.154 1.56 342.374 -7.15256e-07 337.994 -7.15256e-07H316.934L321.074 7.14L321.974 8.04H337.994C340.154 8.04 342.014 8.82 343.574 10.38C345.194 11.94 345.974 13.8 345.974 15.96C345.974 18.18 345.194 20.1 343.574 21.66C342.014 23.22 340.154 24 337.994 24L330.854 23.94L344.774 48H353.954L344.114 30.78C346.934 29.64 349.274 27.72 351.134 25.02ZM403.498 28.02C405.178 28.02 406.558 28.62 407.758 29.82C408.898 31.02 409.558 32.4 409.558 34.02C409.558 34.86 409.378 35.64 409.078 36.36C408.778 37.14 408.358 37.74 407.818 38.28C407.278 38.82 406.618 39.24 405.838 39.54C405.118 39.84 404.338 39.96 403.498 39.96V48C407.398 48 410.698 46.62 413.398 43.92C416.158 41.16 417.538 37.86 417.538 34.02C417.538 30.18 416.158 26.88 413.398 24.12C410.698 21.42 407.398 20.04 403.498 20.04H391.558C389.818 20.04 388.438 19.44 387.238 18.24C386.098 17.04 385.558 15.66 385.558 13.98C385.558 13.2 385.678 12.42 385.978 11.7C386.278 10.98 386.698 10.32 387.238 9.78C387.838 9.18 388.438 8.76 389.218 8.46C389.938 8.16 390.718 8.04 391.558 8.04V-7.15256e-07C387.658 -7.15256e-07 384.358 1.38 381.658 4.14C378.958 6.9 377.578 10.14 377.578 13.98C377.578 17.88 378.958 21.18 381.658 23.94C384.358 26.64 387.658 28.02 391.558 28.02H403.498Z" fill="url(#paint0_linear)"/>
<defs>
<linearGradient id="paint0_linear" x1="42" y1="-43.5" x2="262.5" y2="131.5" gradientUnits="userSpaceOnUse">
<stop stop-color="white"/>
<stop offset="1" stop-color="#E5E5E5"/>
</linearGradient>
</defs>
</svg>
